<mxfile host="app.diagrams.net" modified="2023-12-08T19:21:57.888Z" agent="Mozilla/5.0 (Windows NT 10.0; Win64; x64) AppleWebKit/537.36 (KHTML, like Gecko) Chrome/119.0.0.0 Safari/537.36" etag="YP8GtLmSX3nfj2EUJmku" version="22.1.7" type="device">
  <diagram name="Page-1" id="2YBvvXClWsGukQMizWep">
    <mxGraphModel dx="1826" dy="949" grid="1" gridSize="10" guides="1" tooltips="1" connect="1" arrows="1" fold="1" page="1" pageScale="1" pageWidth="1654" pageHeight="2336" math="0" shadow="0">
      <root>
        <mxCell id="0" />
        <mxCell id="1" parent="0" />
        <mxCell id="BpKAYK6RKZ5FypKMGdYV-23" value=":Intern" style="shape=umlLifeline;perimeter=lifelinePerimeter;whiteSpace=wrap;container=1;dropTarget=0;collapsible=0;recursiveResize=0;outlineConnect=0;portConstraint=eastwest;newEdgeStyle={&quot;edgeStyle&quot;:&quot;elbowEdgeStyle&quot;,&quot;elbow&quot;:&quot;vertical&quot;,&quot;curved&quot;:0,&quot;rounded&quot;:0};size=65;" parent="1" vertex="1">
          <mxGeometry x="589" y="30" width="150" height="977" as="geometry" />
        </mxCell>
        <mxCell id="BpKAYK6RKZ5FypKMGdYV-24" value=":Meeting" style="shape=umlLifeline;perimeter=lifelinePerimeter;whiteSpace=wrap;container=1;dropTarget=0;collapsible=0;recursiveResize=0;outlineConnect=0;portConstraint=eastwest;newEdgeStyle={&quot;edgeStyle&quot;:&quot;elbowEdgeStyle&quot;,&quot;elbow&quot;:&quot;vertical&quot;,&quot;curved&quot;:0,&quot;rounded&quot;:0};size=60;" parent="1" vertex="1">
          <mxGeometry x="1140" y="90" width="150" height="910" as="geometry" />
        </mxCell>
        <mxCell id="BpKAYK6RKZ5FypKMGdYV-29" value="scheduleMeeting(startTime, endTime,&#xa;meetingLocation, mentorID)" style="verticalAlign=bottom;endArrow=block;edgeStyle=elbowEdgeStyle;elbow=vertical;curved=0;rounded=0;" parent="1" edge="1">
          <mxGeometry relative="1" as="geometry">
            <Array as="points">
              <mxPoint x="396" y="170" />
            </Array>
            <mxPoint x="105.70000000000005" y="170" as="sourcePoint" />
            <mxPoint x="640" y="170" as="targetPoint" />
          </mxGeometry>
        </mxCell>
        <mxCell id="BpKAYK6RKZ5FypKMGdYV-30" value="Availability (true or false)" style="verticalAlign=bottom;endArrow=block;edgeStyle=elbowEdgeStyle;elbow=vertical;curved=0;rounded=0;dashed=1;dashPattern=2 3;" parent="1" source="BpKAYK6RKZ5FypKMGdYV-42" target="BpKAYK6RKZ5FypKMGdYV-57" edge="1">
          <mxGeometry relative="1" as="geometry">
            <Array as="points">
              <mxPoint x="850.8699999999999" y="480" />
              <mxPoint x="930.8699999999999" y="509" />
            </Array>
            <mxPoint x="1126.3700000000003" y="480" as="sourcePoint" />
            <mxPoint x="714.5004347826089" y="480" as="targetPoint" />
          </mxGeometry>
        </mxCell>
        <mxCell id="BpKAYK6RKZ5FypKMGdYV-39" value="Intern" style="shape=umlActor;verticalLabelPosition=bottom;verticalAlign=top;html=1;outlineConnect=0;" parent="1" vertex="1">
          <mxGeometry x="70" y="20" width="54" height="108" as="geometry" />
        </mxCell>
        <mxCell id="BpKAYK6RKZ5FypKMGdYV-40" value="" style="endArrow=none;dashed=1;html=1;rounded=0;" parent="1" edge="1">
          <mxGeometry width="50" height="50" relative="1" as="geometry">
            <mxPoint x="100" y="150" as="sourcePoint" />
            <mxPoint x="100" y="1004.4444444444445" as="targetPoint" />
          </mxGeometry>
        </mxCell>
        <mxCell id="BpKAYK6RKZ5FypKMGdYV-41" value="" style="rounded=0;whiteSpace=wrap;html=1;fillColor=#B3B3B3;fillStyle=auto;" parent="1" vertex="1">
          <mxGeometry x="639" y="140" width="50" height="230" as="geometry" />
        </mxCell>
        <mxCell id="BpKAYK6RKZ5FypKMGdYV-42" value="" style="rounded=0;whiteSpace=wrap;html=1;fillColor=#B3B3B3;" parent="1" vertex="1">
          <mxGeometry x="1190" y="180" width="50" height="500" as="geometry" />
        </mxCell>
        <mxCell id="BpKAYK6RKZ5FypKMGdYV-43" value="Meeting(location, startTime,&#xa;endTime, date, mentorID, internID)" style="verticalAlign=bottom;endArrow=block;edgeStyle=elbowEdgeStyle;elbow=vertical;curved=0;rounded=0;" parent="1" edge="1">
          <mxGeometry relative="1" as="geometry">
            <Array as="points">
              <mxPoint x="786.04" y="300" />
            </Array>
            <mxPoint x="688.9999999999998" y="300.0000000000001" as="sourcePoint" />
            <mxPoint x="1190" y="300.0000000000001" as="targetPoint" />
          </mxGeometry>
        </mxCell>
        <mxCell id="BpKAYK6RKZ5FypKMGdYV-46" value="" style="rounded=0;whiteSpace=wrap;html=1;fillColor=#B3B3B3;" parent="1" vertex="1">
          <mxGeometry x="664.5" y="200" width="50" height="60" as="geometry" />
        </mxCell>
        <mxCell id="BpKAYK6RKZ5FypKMGdYV-47" value="findInternID()" style="verticalAlign=bottom;endArrow=block;edgeStyle=elbowEdgeStyle;elbow=vertical;curved=0;rounded=0;entryX=1;entryY=0.25;entryDx=0;entryDy=0;exitX=0.988;exitY=0.219;exitDx=0;exitDy=0;exitPerimeter=0;" parent="1" source="BpKAYK6RKZ5FypKMGdYV-41" target="BpKAYK6RKZ5FypKMGdYV-46" edge="1">
          <mxGeometry x="0.201" relative="1" as="geometry">
            <Array as="points">
              <mxPoint x="780" y="170" />
            </Array>
            <mxPoint x="714.4950000000002" y="169.9999999999999" as="sourcePoint" />
            <mxPoint x="1134.9199999999998" y="170" as="targetPoint" />
            <mxPoint as="offset" />
          </mxGeometry>
        </mxCell>
        <mxCell id="BpKAYK6RKZ5FypKMGdYV-48" value="internID" style="verticalAlign=bottom;endArrow=block;edgeStyle=elbowEdgeStyle;elbow=vertical;curved=0;rounded=0;exitX=1;exitY=0.75;exitDx=0;exitDy=0;" parent="1" source="BpKAYK6RKZ5FypKMGdYV-46" target="BpKAYK6RKZ5FypKMGdYV-41" edge="1">
          <mxGeometry x="0.002" relative="1" as="geometry">
            <Array as="points">
              <mxPoint x="820" y="270" />
            </Array>
            <mxPoint x="801" y="280" as="sourcePoint" />
            <mxPoint x="827" y="340" as="targetPoint" />
            <mxPoint as="offset" />
          </mxGeometry>
        </mxCell>
        <mxCell id="BpKAYK6RKZ5FypKMGdYV-49" value="" style="rounded=0;whiteSpace=wrap;html=1;fillColor=#B3B3B3;" parent="1" vertex="1">
          <mxGeometry x="1220" y="351" width="50" height="60" as="geometry" />
        </mxCell>
        <mxCell id="BpKAYK6RKZ5FypKMGdYV-50" value="IsAvailable()" style="verticalAlign=bottom;endArrow=block;edgeStyle=elbowEdgeStyle;elbow=horizontal;curved=0;rounded=0;entryX=1;entryY=0.25;entryDx=0;entryDy=0;" parent="1" source="BpKAYK6RKZ5FypKMGdYV-42" target="BpKAYK6RKZ5FypKMGdYV-49" edge="1">
          <mxGeometry x="0.2087" y="14" relative="1" as="geometry">
            <Array as="points">
              <mxPoint x="1335.5" y="321" />
            </Array>
            <mxPoint x="1244.5" y="321" as="sourcePoint" />
            <mxPoint x="1690.4199999999998" y="321" as="targetPoint" />
            <mxPoint as="offset" />
          </mxGeometry>
        </mxCell>
        <mxCell id="BpKAYK6RKZ5FypKMGdYV-51" value="Availability" style="verticalAlign=bottom;endArrow=block;edgeStyle=elbowEdgeStyle;elbow=vertical;curved=0;rounded=0;exitX=1;exitY=0.75;exitDx=0;exitDy=0;" parent="1" source="BpKAYK6RKZ5FypKMGdYV-49" target="BpKAYK6RKZ5FypKMGdYV-42" edge="1">
          <mxGeometry x="0.002" relative="1" as="geometry">
            <Array as="points">
              <mxPoint x="1375.5" y="421" />
            </Array>
            <mxPoint x="1356.5" y="431" as="sourcePoint" />
            <mxPoint x="1244.5" y="440" as="targetPoint" />
            <mxPoint as="offset" />
          </mxGeometry>
        </mxCell>
        <mxCell id="BpKAYK6RKZ5FypKMGdYV-53" value="scheduleMeeting()" style="verticalAlign=bottom;endArrow=block;edgeStyle=elbowEdgeStyle;elbow=vertical;curved=0;rounded=0;" parent="1" edge="1">
          <mxGeometry relative="1" as="geometry">
            <Array as="points">
              <mxPoint x="811.54" y="590" />
            </Array>
            <mxPoint x="689" y="590" as="sourcePoint" />
            <mxPoint x="1190" y="590" as="targetPoint" />
          </mxGeometry>
        </mxCell>
        <mxCell id="BpKAYK6RKZ5FypKMGdYV-54" value="scheduledSuccessfully (return true)" style="verticalAlign=bottom;endArrow=block;edgeStyle=elbowEdgeStyle;elbow=vertical;curved=0;rounded=0;dashed=1;dashPattern=2 3;" parent="1" edge="1">
          <mxGeometry relative="1" as="geometry">
            <Array as="points">
              <mxPoint x="850.8699999999999" y="650" />
              <mxPoint x="930.8699999999999" y="679" />
            </Array>
            <mxPoint x="1190" y="650" as="sourcePoint" />
            <mxPoint x="689" y="650" as="targetPoint" />
          </mxGeometry>
        </mxCell>
        <mxCell id="BpKAYK6RKZ5FypKMGdYV-55" value="Success (true)" style="verticalAlign=bottom;endArrow=block;edgeStyle=elbowEdgeStyle;elbow=vertical;curved=0;rounded=0;dashed=1;dashPattern=2 3;" parent="1" edge="1">
          <mxGeometry relative="1" as="geometry">
            <Array as="points">
              <mxPoint x="299.8699999999999" y="667.91" />
              <mxPoint x="379.8699999999999" y="696.91" />
            </Array>
            <mxPoint x="639" y="667.9099999999997" as="sourcePoint" />
            <mxPoint x="100" y="667.91" as="targetPoint" />
          </mxGeometry>
        </mxCell>
        <mxCell id="BpKAYK6RKZ5FypKMGdYV-56" value="" style="rounded=0;whiteSpace=wrap;html=1;fillColor=#B3B3B3;" parent="1" vertex="1">
          <mxGeometry x="640" y="790" width="50" height="80" as="geometry" />
        </mxCell>
        <mxCell id="BpKAYK6RKZ5FypKMGdYV-58" value="Error (false)" style="verticalAlign=bottom;endArrow=block;edgeStyle=elbowEdgeStyle;elbow=vertical;curved=0;rounded=0;dashed=1;dashPattern=2 3;" parent="1" source="BpKAYK6RKZ5FypKMGdYV-56" edge="1">
          <mxGeometry relative="1" as="geometry">
            <Array as="points">
              <mxPoint x="620" y="810" />
              <mxPoint x="329.8699999999999" y="839" />
            </Array>
            <mxPoint x="589" y="810" as="sourcePoint" />
            <mxPoint x="100" y="810" as="targetPoint" />
          </mxGeometry>
        </mxCell>
        <mxCell id="BpKAYK6RKZ5FypKMGdYV-57" value="" style="rounded=0;whiteSpace=wrap;html=1;fillColor=#B3B3B3;" parent="1" vertex="1">
          <mxGeometry x="640" y="470" width="50" height="240" as="geometry" />
        </mxCell>
        <mxCell id="BpKAYK6RKZ5FypKMGdYV-26" value="alt" style="shape=umlFrame;pointerEvents=0;dropTarget=0;strokeColor=#000000;height=20;width=30;strokeWidth=2;" parent="1" vertex="1">
          <mxGeometry x="60" y="530" width="1210" height="379" as="geometry" />
        </mxCell>
        <mxCell id="BpKAYK6RKZ5FypKMGdYV-27" value="[Availability = true]" style="text;strokeColor=none;fillColor=none;align=center;verticalAlign=middle;whiteSpace=wrap;" parent="BpKAYK6RKZ5FypKMGdYV-26" vertex="1">
          <mxGeometry x="30.477857142857143" y="-10" width="173.80785714285716" height="50" as="geometry" />
        </mxCell>
        <mxCell id="BpKAYK6RKZ5FypKMGdYV-28" value="[else]" style="shape=line;dashed=1;verticalAlign=top;labelPosition=center;verticalLabelPosition=bottom;align=left;strokeColor=#000000;fontColor=#000000;strokeWidth=1;fontSize=13;spacingLeft=130;" parent="BpKAYK6RKZ5FypKMGdYV-26" vertex="1">
          <mxGeometry y="174.3936228563009" width="1211.8032786885246" height="2.28657616892911" as="geometry" />
        </mxCell>
      </root>
    </mxGraphModel>
  </diagram>
</mxfile>
